<svg id="visual" viewBox="0 0 900 450" width="900" height="450" xmlns="http://www.w3.org/2000/svg" xmlns:xlink="http://www.w3.org/1999/xlink" version="1.1"><path d="M0 83L18.8 82.7C37.7 82.3 75.3 81.7 112.8 79.7C150.3 77.7 187.7 74.3 225.2 84.8C262.7 95.3 300.3 119.7 337.8 120.3C375.3 121 412.7 98 450.2 93.5C487.7 89 525.3 103 562.8 120C600.3 137 637.7 157 675.2 152.8C712.7 148.7 750.3 120.3 787.8 120.2C825.3 120 862.7 148 881.3 162L900 176L900 451L881.3 451C862.7 451 825.3 451 787.8 451C750.3 451 712.7 451 675.2 451C637.7 451 600.3 451 562.8 451C525.3 451 487.7 451 450.2 451C412.7 451 375.3 451 337.8 451C300.3 451 262.7 451 225.2 451C187.7 451 150.3 451 112.8 451C75.3 451 37.7 451 18.8 451L0 451Z" fill="#c4d5e9"></path><path d="M0 183L18.8 186.7C37.7 190.3 75.3 197.7 112.8 202.3C150.3 207 187.7 209 225.2 199.8C262.7 190.7 300.3 170.3 337.8 170.8C375.3 171.3 412.7 192.7 450.2 207.2C487.7 221.7 525.3 229.3 562.8 218.5C600.3 207.7 637.7 178.3 675.2 176.2C712.7 174 750.3 199 787.8 198.8C825.3 198.7 862.7 173.3 881.3 160.7L900 148L900 451L881.3 451C862.7 451 825.3 451 787.8 451C750.3 451 712.7 451 675.2 451C637.7 451 600.3 451 562.8 451C525.3 451 487.7 451 450.2 451C412.7 451 375.3 451 337.8 451C300.3 451 262.7 451 225.2 451C187.7 451 150.3 451 112.8 451C75.3 451 37.7 451 18.8 451L0 451Z" fill="#b0c7e2"></path><path d="M0 309L18.8 303.2C37.7 297.3 75.3 285.7 112.8 281.3C150.3 277 187.7 280 225.2 282.3C262.7 284.7 300.3 286.3 337.8 283.7C375.3 281 412.7 274 450.2 268.3C487.7 262.7 525.3 258.3 562.8 268.7C600.3 279 637.7 304 675.2 309.2C712.7 314.3 750.3 299.7 787.8 284.2C825.3 268.7 862.7 252.3 881.3 244.2L900 236L900 451L881.3 451C862.7 451 825.3 451 787.8 451C750.3 451 712.7 451 675.2 451C637.7 451 600.3 451 562.8 451C525.3 451 487.7 451 450.2 451C412.7 451 375.3 451 337.8 451C300.3 451 262.7 451 225.2 451C187.7 451 150.3 451 112.8 451C75.3 451 37.7 451 18.8 451L0 451Z" fill="#9cb9da"></path><path d="M0 317L18.8 326.7C37.7 336.3 75.3 355.7 112.8 368.8C150.3 382 187.7 389 225.2 380.8C262.7 372.7 300.3 349.3 337.8 339C375.3 328.7 412.7 331.3 450.2 344C487.7 356.7 525.3 379.3 562.8 385C600.3 390.7 637.7 379.3 675.2 371.7C712.7 364 750.3 360 787.8 358.2C825.3 356.3 862.7 356.7 881.3 356.8L900 357L900 451L881.3 451C862.7 451 825.3 451 787.8 451C750.3 451 712.7 451 675.2 451C637.7 451 600.3 451 562.8 451C525.3 451 487.7 451 450.2 451C412.7 451 375.3 451 337.8 451C300.3 451 262.7 451 225.2 451C187.7 451 150.3 451 112.8 451C75.3 451 37.7 451 18.8 451L0 451Z" fill="#88abd3"></path></svg>