<svg id="visual" viewBox="0 0 900 250" width="900" height="250" xmlns="http://www.w3.org/2000/svg" xmlns:xlink="http://www.w3.org/1999/xlink" version="1.1"><path d="M0 46L18.8 45.7C37.7 45.3 75.3 44.7 112.8 43.5C150.3 42.3 187.7 40.7 225.2 46.5C262.7 52.3 300.3 65.7 337.8 66C375.3 66.3 412.7 53.7 450.2 51.3C487.7 49 525.3 57 562.8 66.5C600.3 76 637.7 87 675.2 84.7C712.7 82.3 750.3 66.7 787.8 66.5C825.3 66.3 862.7 81.7 881.3 89.3L900 97L900 251L881.3 251C862.7 251 825.3 251 787.8 251C750.3 251 712.7 251 675.2 251C637.7 251 600.3 251 562.8 251C525.3 251 487.7 251 450.2 251C412.7 251 375.3 251 337.8 251C300.3 251 262.7 251 225.2 251C187.7 251 150.3 251 112.8 251C75.3 251 37.7 251 18.8 251L0 251Z" fill="#c4d5e9"></path><path d="M0 101L18.8 103C37.7 105 75.3 109 112.8 111.7C150.3 114.3 187.7 115.7 225.2 110.7C262.7 105.7 300.3 94.3 337.8 94.7C375.3 95 412.7 107 450.2 115C487.7 123 525.3 127 562.8 121C600.3 115 637.7 99 675.2 97.8C712.7 96.7 750.3 110.3 787.8 110.2C825.3 110 862.7 96 881.3 89L900 82L900 251L881.3 251C862.7 251 825.3 251 787.8 251C750.3 251 712.7 251 675.2 251C637.7 251 600.3 251 562.8 251C525.3 251 487.7 251 450.2 251C412.7 251 375.3 251 337.8 251C300.3 251 262.7 251 225.2 251C187.7 251 150.3 251 112.8 251C75.3 251 37.7 251 18.8 251L0 251Z" fill="#b0c7e2"></path><path d="M0 171L18.8 167.8C37.7 164.7 75.3 158.3 112.8 156C150.3 153.7 187.7 155.3 225.2 156.5C262.7 157.7 300.3 158.3 337.8 156.8C375.3 155.3 412.7 151.7 450.2 148.7C487.7 145.7 525.3 143.3 562.8 149C600.3 154.7 637.7 168.3 675.2 171.2C712.7 174 750.3 166 787.8 157.5C825.3 149 862.7 140 881.3 135.5L900 131L900 251L881.3 251C862.7 251 825.3 251 787.8 251C750.3 251 712.7 251 675.2 251C637.7 251 600.3 251 562.8 251C525.3 251 487.7 251 450.2 251C412.7 251 375.3 251 337.8 251C300.3 251 262.7 251 225.2 251C187.7 251 150.3 251 112.8 251C75.3 251 37.7 251 18.8 251L0 251Z" fill="#9cb9da"></path><path d="M0 176L18.8 181.3C37.7 186.7 75.3 197.3 112.8 204.7C150.3 212 187.7 216 225.2 211.5C262.7 207 300.3 194 337.8 188.2C375.3 182.3 412.7 183.7 450.2 190.7C487.7 197.7 525.3 210.3 562.8 213.5C600.3 216.7 637.7 210.3 675.2 206C712.7 201.7 750.3 199.3 787.8 198.3C825.3 197.3 862.7 197.7 881.3 197.8L900 198L900 251L881.3 251C862.7 251 825.3 251 787.8 251C750.3 251 712.7 251 675.2 251C637.7 251 600.3 251 562.8 251C525.3 251 487.7 251 450.2 251C412.7 251 375.3 251 337.8 251C300.3 251 262.7 251 225.2 251C187.7 251 150.3 251 112.8 251C75.3 251 37.7 251 18.8 251L0 251Z" fill="#88abd3"></path></svg>