<svg id="visual" viewBox="0 0 900 450" width="900" height="450" xmlns="http://www.w3.org/2000/svg" xmlns:xlink="http://www.w3.org/1999/xlink" version="1.1"><path d="M0 177L18.8 163.5C37.7 150 75.3 123 112.8 126.7C150.3 130.3 187.7 164.7 225.2 178.5C262.7 192.3 300.3 185.7 337.8 180.3C375.3 175 412.7 171 450.2 159.8C487.7 148.7 525.3 130.3 562.8 128C600.3 125.7 637.7 139.3 675.2 136.7C712.7 134 750.3 115 787.8 120.7C825.3 126.3 862.7 156.7 881.3 171.8L900 187L900 451L881.3 451C862.7 451 825.3 451 787.8 451C750.3 451 712.7 451 675.2 451C637.7 451 600.3 451 562.8 451C525.3 451 487.7 451 450.2 451C412.7 451 375.3 451 337.8 451C300.3 451 262.7 451 225.2 451C187.7 451 150.3 451 112.8 451C75.3 451 37.7 451 18.8 451L0 451Z" fill="#c4d5e9"></path><path d="M0 242L18.8 239.7C37.7 237.3 75.3 232.7 112.8 227.5C150.3 222.3 187.7 216.7 225.2 208.8C262.7 201 300.3 191 337.8 201.2C375.3 211.3 412.7 241.7 450.2 247.7C487.7 253.7 525.3 235.3 562.8 226C600.3 216.7 637.7 216.3 675.2 226.5C712.7 236.7 750.3 257.3 787.8 259.7C825.3 262 862.7 246 881.3 238L900 230L900 451L881.3 451C862.7 451 825.3 451 787.8 451C750.3 451 712.7 451 675.2 451C637.7 451 600.3 451 562.8 451C525.3 451 487.7 451 450.2 451C412.7 451 375.3 451 337.8 451C300.3 451 262.7 451 225.2 451C187.7 451 150.3 451 112.8 451C75.3 451 37.7 451 18.8 451L0 451Z" fill="#b0c7e2"></path><path d="M0 337L18.8 328.3C37.7 319.7 75.3 302.3 112.8 289.8C150.3 277.3 187.7 269.7 225.2 267.8C262.7 266 300.3 270 337.8 269.7C375.3 269.3 412.7 264.7 450.2 274.2C487.7 283.7 525.3 307.3 562.8 310.5C600.3 313.7 637.7 296.3 675.2 294.8C712.7 293.3 750.3 307.7 787.8 308.5C825.3 309.3 862.7 296.7 881.3 290.3L900 284L900 451L881.3 451C862.7 451 825.3 451 787.8 451C750.3 451 712.7 451 675.2 451C637.7 451 600.3 451 562.8 451C525.3 451 487.7 451 450.2 451C412.7 451 375.3 451 337.8 451C300.3 451 262.7 451 225.2 451C187.7 451 150.3 451 112.8 451C75.3 451 37.7 451 18.8 451L0 451Z" fill="#9cb9da"></path><path d="M0 349L18.8 356.2C37.7 363.3 75.3 377.7 112.8 379.5C150.3 381.3 187.7 370.7 225.2 372.2C262.7 373.7 300.3 387.3 337.8 386.5C375.3 385.7 412.7 370.3 450.2 365.5C487.7 360.7 525.3 366.3 562.8 371.3C600.3 376.3 637.7 380.7 675.2 379.5C712.7 378.3 750.3 371.7 787.8 361.2C825.3 350.7 862.7 336.3 881.3 329.2L900 322L900 451L881.3 451C862.7 451 825.3 451 787.8 451C750.3 451 712.7 451 675.2 451C637.7 451 600.3 451 562.8 451C525.3 451 487.7 451 450.2 451C412.7 451 375.3 451 337.8 451C300.3 451 262.7 451 225.2 451C187.7 451 150.3 451 112.8 451C75.3 451 37.7 451 18.8 451L0 451Z" fill="#88abd3"></path></svg>